<svg width="1170" height="56" viewBox="0 0 1170 56" fill="none" xmlns="http://www.w3.org/2000/svg">
<path d="M1010 28C1010 12.536 1022.54 0 1038 0H1055.26C1060.9 0 1064.77 5.67705 1062.71 10.9252L1046.97 50.99C1045.78 54.0124 1042.86 56 1039.62 56H1038C1022.54 56 1010 43.464 1010 28Z" fill="white" fill-opacity="0.07"/>
<rect width="160" height="56" rx="28" fill="#894189"/>
<path d="M0 28C0 12.536 12.536 0 28 0H45.2619C50.9006 0 54.7697 5.67705 52.708 10.9252L36.9682 50.99C35.7808 54.0124 32.8645 56 29.6172 56H28C12.536 56 0 43.464 0 28Z" fill="white" fill-opacity="0.07"/>
<path d="M36.6175 35V20.4545H38.8121V33.1108H45.4031V35H36.6175ZM47.7362 35V24.0909H49.8597V35H47.7362ZM48.8086 22.4077C48.4393 22.4077 48.122 22.2846 47.8569 22.0384C47.5965 21.7874 47.4663 21.4891 47.4663 21.1435C47.4663 20.7931 47.5965 20.4948 47.8569 20.2486C48.122 19.9976 48.4393 19.8722 48.8086 19.8722C49.1779 19.8722 49.4928 19.9976 49.7532 20.2486C50.0183 20.4948 50.1509 20.7931 50.1509 21.1435C50.1509 21.4891 50.0183 21.7874 49.7532 22.0384C49.4928 22.2846 49.1779 22.4077 48.8086 22.4077ZM57.9084 24.0909V25.7955H51.7436V24.0909H57.9084ZM53.4339 35V22.8267C53.4339 22.1449 53.5831 21.5791 53.8814 21.1293C54.1797 20.6747 54.575 20.3362 55.0675 20.1136C55.5599 19.8864 56.0949 19.7727 56.6726 19.7727C57.0987 19.7727 57.4633 19.8082 57.7663 19.8793C58.0694 19.9455 58.2943 20.0071 58.4411 20.0639L57.9439 21.7827C57.8445 21.7543 57.7166 21.7211 57.5604 21.6832C57.4041 21.6406 57.2147 21.6193 56.9922 21.6193C56.4761 21.6193 56.1068 21.7472 55.8842 22.0028C55.6664 22.2585 55.5575 22.6278 55.5575 23.1108V35H53.4339ZM64.3714 35.2202C63.2966 35.2202 62.371 34.9905 61.5945 34.5312C60.8227 34.0672 60.2261 33.4162 59.8047 32.5781C59.388 31.7353 59.1797 30.7481 59.1797 29.6165C59.1797 28.4991 59.388 27.5142 59.8047 26.6619C60.2261 25.8097 60.8132 25.1444 61.5661 24.6662C62.3236 24.188 63.209 23.9489 64.2223 23.9489C64.8378 23.9489 65.4344 24.0507 66.0121 24.2543C66.5897 24.4579 67.1082 24.7775 67.5675 25.2131C68.0268 25.6487 68.389 26.2145 68.6541 26.9105C68.9193 27.6018 69.0518 28.4422 69.0518 29.4318V30.1847H60.38V28.5938H66.9709C66.9709 28.035 66.8572 27.5402 66.63 27.1094C66.4027 26.6738 66.0831 26.3305 65.6712 26.0795C65.264 25.8286 64.7857 25.7031 64.2365 25.7031C63.6399 25.7031 63.1191 25.8499 62.674 26.1435C62.2337 26.4323 61.8928 26.8111 61.6513 27.2798C61.4145 27.7438 61.2962 28.2481 61.2962 28.7926V30.0355C61.2962 30.7647 61.424 31.3849 61.6797 31.8963C61.9401 32.4077 62.3023 32.7983 62.7663 33.0682C63.2304 33.3333 63.7725 33.4659 64.3928 33.4659C64.7952 33.4659 65.1622 33.4091 65.4936 33.2955C65.825 33.1771 66.1115 33.0019 66.353 32.7699C66.5945 32.5379 66.7791 32.2514 66.907 31.9105L68.9169 32.2727C68.7559 32.8646 68.4671 33.383 68.0504 33.8281C67.6385 34.2685 67.12 34.6117 66.495 34.858C65.8748 35.0994 65.1669 35.2202 64.3714 35.2202Z" fill="white"/>
<path d="M88.5858 37.8951L88.5777 37.8916L88.552 37.8776C88.4018 37.795 88.2529 37.7102 88.1052 37.6232C86.3293 36.568 84.6697 35.3284 83.1538 33.9249C80.4693 31.4201 77.625 27.7031 77.625 23.1251C77.625 19.7091 80.4997 17.0001 83.9693 17.0001C84.9339 16.9954 85.8871 17.2081 86.758 17.6226C87.629 18.0371 88.3953 18.6426 89 19.3941C89.6048 18.6424 90.3713 18.0369 91.2425 17.6224C92.1137 17.2079 93.0671 16.9952 94.0318 17.0001C97.5003 17.0001 100.375 19.7091 100.375 23.1251C100.375 27.7042 97.5307 31.4212 94.8462 33.9237C93.3304 35.3272 91.6707 36.5669 89.8948 37.6221C89.7471 37.7094 89.5982 37.7946 89.448 37.8776L89.4223 37.8916L89.4142 37.8962L89.4107 37.8974C89.2842 37.9644 89.1432 37.9995 89 37.9995C88.8568 37.9995 88.7158 37.9644 88.5893 37.8974L88.5858 37.8951Z" fill="white"/>
<path d="M98.8933 35.9668L102.083 29.7335H99.8833V25.7001L96.5833 31.9335H98.8933V35.9668ZM99.3333 38.1668C98.3189 38.1668 97.3656 37.9743 96.4733 37.5893C95.5811 37.2043 94.805 36.6818 94.145 36.0218C93.485 35.3618 92.9625 34.5857 92.5775 33.6935C92.1925 32.8012 92 31.8479 92 30.8335C92 29.819 92.1925 28.8657 92.5775 27.9735C92.9625 27.0812 93.485 26.3051 94.145 25.6451C94.805 24.9851 95.5811 24.4626 96.4733 24.0776C97.3656 23.6926 98.3189 23.5001 99.3333 23.5001C100.348 23.5001 101.301 23.6926 102.193 24.0776C103.086 24.4626 103.862 24.9851 104.522 25.6451C105.182 26.3051 105.704 27.0812 106.089 27.9735C106.474 28.8657 106.667 29.819 106.667 30.8335C106.667 31.8479 106.474 32.8012 106.089 33.6935C105.704 34.5857 105.182 35.3618 104.522 36.0218C103.862 36.6818 103.086 37.2043 102.193 37.5893C101.301 37.9743 100.348 38.1668 99.3333 38.1668Z" fill="#894189"/>
<path d="M99.2667 35.5001L102.167 29.8334H100.167V26.1667L97.1667 31.8334H99.2667V35.5001ZM99.6667 37.5001C98.7444 37.5001 97.8778 37.3251 97.0667 36.9751C96.2556 36.6251 95.55 36.1501 94.95 35.5501C94.35 34.9501 93.875 34.2445 93.525 33.4334C93.175 32.6223 93 31.7556 93 30.8334C93 29.9112 93.175 29.0445 93.525 28.2334C93.875 27.4223 94.35 26.7167 94.95 26.1167C95.55 25.5167 96.2556 25.0417 97.0667 24.6917C97.8778 24.3417 98.7444 24.1667 99.6667 24.1667C100.589 24.1667 101.456 24.3417 102.267 24.6917C103.078 25.0417 103.783 25.5167 104.383 26.1167C104.983 26.7167 105.458 27.4223 105.808 28.2334C106.158 29.0445 106.333 29.9112 106.333 30.8334C106.333 31.7556 106.158 32.6223 105.808 33.4334C105.458 34.2445 104.983 34.9501 104.383 35.5501C103.783 36.1501 103.078 36.6251 102.267 36.9751C101.456 37.3251 100.589 37.5001 99.6667 37.5001Z" fill="white"/>
<path d="M121.858 20.4545V35H119.656V22.6562H119.571L116.091 24.929V22.8267L119.72 20.4545H121.858Z" fill="white"/>
<rect x="1000" width="170" height="56" rx="28" fill="#360490"/>
<path d="M1042.88 24.2756C1042.81 23.6032 1042.5 23.0824 1041.95 22.7131C1041.4 22.339 1040.71 22.152 1039.87 22.152C1039.28 22.152 1038.76 22.2467 1038.33 22.4361C1037.89 22.6207 1037.55 22.8764 1037.31 23.2031C1037.07 23.5251 1036.95 23.892 1036.95 24.304C1036.95 24.6496 1037.03 24.9479 1037.2 25.1989C1037.36 25.4498 1037.58 25.6605 1037.84 25.831C1038.11 25.9967 1038.4 26.1364 1038.71 26.25C1039.02 26.3589 1039.31 26.4489 1039.6 26.5199L1041.02 26.8892C1041.48 27.0028 1041.96 27.1567 1042.44 27.3509C1042.93 27.545 1043.38 27.8007 1043.8 28.1179C1044.22 28.4351 1044.55 28.8281 1044.81 29.2969C1045.07 29.7656 1045.2 30.3267 1045.2 30.9801C1045.2 31.804 1044.99 32.5355 1044.56 33.1747C1044.14 33.8139 1043.53 34.3182 1042.72 34.6875C1041.92 35.0568 1040.95 35.2415 1039.82 35.2415C1038.73 35.2415 1037.79 35.0687 1036.99 34.723C1036.19 34.3774 1035.57 33.8873 1035.12 33.2528C1034.67 32.6136 1034.42 31.8561 1034.38 30.9801H1036.58C1036.62 31.5057 1036.79 31.9437 1037.09 32.294C1037.39 32.6397 1037.78 32.8977 1038.25 33.0682C1038.72 33.2339 1039.24 33.3168 1039.8 33.3168C1040.42 33.3168 1040.97 33.2197 1041.46 33.0256C1041.94 32.8267 1042.33 32.5521 1042.61 32.2017C1042.89 31.8466 1043.03 31.4323 1043.03 30.9588C1043.03 30.5279 1042.9 30.1752 1042.66 29.9006C1042.42 29.6259 1042.09 29.3987 1041.67 29.2188C1041.26 29.0388 1040.79 28.8802 1040.27 28.7429L1038.55 28.2741C1037.39 27.9569 1036.46 27.4905 1035.78 26.875C1035.11 26.2595 1034.77 25.4451 1034.77 24.4318C1034.77 23.5937 1034.99 22.8622 1035.45 22.2372C1035.9 21.6122 1036.52 21.1269 1037.3 20.7812C1038.07 20.4309 1038.95 20.2557 1039.92 20.2557C1040.91 20.2557 1041.78 20.4285 1042.53 20.7741C1043.29 21.1198 1043.88 21.5956 1044.32 22.2017C1044.76 22.803 1044.98 23.4943 1045 24.2756H1042.88ZM1052.25 35.2202C1051.19 35.2202 1050.28 34.9811 1049.52 34.5028C1048.76 34.0199 1048.18 33.3546 1047.77 32.5071C1047.37 31.6596 1047.16 30.6889 1047.16 29.5952C1047.16 28.4872 1047.37 27.5095 1047.79 26.6619C1048.2 25.8097 1048.79 25.1444 1049.55 24.6662C1050.31 24.188 1051.2 23.9489 1052.23 23.9489C1053.05 23.9489 1053.79 24.1027 1054.44 24.4105C1055.09 24.7135 1055.61 25.1397 1056.01 25.6889C1056.41 26.2382 1056.65 26.8797 1056.73 27.6136H1054.66C1054.55 27.1023 1054.29 26.6619 1053.88 26.2926C1053.48 25.9233 1052.94 25.7386 1052.26 25.7386C1051.67 25.7386 1051.15 25.8949 1050.71 26.2074C1050.27 26.5152 1049.92 26.9555 1049.68 27.5284C1049.43 28.0966 1049.31 28.7689 1049.31 29.5455C1049.31 30.3409 1049.43 31.0275 1049.67 31.6051C1049.91 32.1828 1050.25 32.6302 1050.69 32.9474C1051.14 33.2647 1051.66 33.4233 1052.26 33.4233C1052.66 33.4233 1053.03 33.3499 1053.36 33.2031C1053.69 33.0516 1053.96 32.8362 1054.19 32.5568C1054.41 32.2775 1054.57 31.9413 1054.66 31.5483H1056.73C1056.65 32.2538 1056.42 32.8835 1056.04 33.4375C1055.66 33.9915 1055.14 34.4271 1054.5 34.7443C1053.86 35.0616 1053.11 35.2202 1052.25 35.2202ZM1063.59 35.2202C1062.57 35.2202 1061.68 34.9858 1060.92 34.517C1060.16 34.0483 1059.56 33.3925 1059.14 32.5497C1058.72 31.7069 1058.51 30.7221 1058.51 29.5952C1058.51 28.4635 1058.72 27.474 1059.14 26.6264C1059.56 25.7789 1060.16 25.1207 1060.92 24.652C1061.68 24.1832 1062.57 23.9489 1063.59 23.9489C1064.62 23.9489 1065.51 24.1832 1066.27 24.652C1067.03 25.1207 1067.63 25.7789 1068.05 26.6264C1068.47 27.474 1068.68 28.4635 1068.68 29.5952C1068.68 30.7221 1068.47 31.7069 1068.05 32.5497C1067.63 33.3925 1067.03 34.0483 1066.27 34.517C1065.51 34.9858 1064.62 35.2202 1063.59 35.2202ZM1063.6 33.4375C1064.26 33.4375 1064.81 33.2623 1065.25 32.9119C1065.69 32.5616 1066.01 32.0952 1066.22 31.5128C1066.43 30.9304 1066.54 30.2888 1066.54 29.5881C1066.54 28.892 1066.43 28.2528 1066.22 27.6705C1066.01 27.0833 1065.69 26.6122 1065.25 26.2571C1064.81 25.902 1064.26 25.7244 1063.6 25.7244C1062.93 25.7244 1062.38 25.902 1061.94 26.2571C1061.5 26.6122 1061.18 27.0833 1060.97 27.6705C1060.76 28.2528 1060.65 28.892 1060.65 29.5881C1060.65 30.2888 1060.76 30.9304 1060.97 31.5128C1061.18 32.0952 1061.5 32.5616 1061.94 32.9119C1062.38 33.2623 1062.93 33.4375 1063.6 33.4375ZM1071.05 35V24.0909H1073.1V25.8239H1073.22C1073.42 25.2367 1073.77 24.7751 1074.27 24.4389C1074.77 24.098 1075.35 23.9276 1075.99 23.9276C1076.12 23.9276 1076.28 23.9323 1076.46 23.9418C1076.64 23.9512 1076.78 23.9631 1076.89 23.9773V26.0085C1076.8 25.9848 1076.65 25.9588 1076.43 25.9304C1076.22 25.8973 1076 25.8807 1075.78 25.8807C1075.28 25.8807 1074.83 25.9872 1074.44 26.2003C1074.05 26.4086 1073.74 26.6998 1073.52 27.0739C1073.29 27.4432 1073.17 27.8646 1073.17 28.3381V35H1071.05ZM1083.04 35.2202C1081.96 35.2202 1081.04 34.9905 1080.26 34.5312C1079.49 34.0672 1078.89 33.4162 1078.47 32.5781C1078.05 31.7353 1077.85 30.7481 1077.85 29.6165C1077.85 28.4991 1078.05 27.5142 1078.47 26.6619C1078.89 25.8097 1079.48 25.1444 1080.23 24.6662C1080.99 24.188 1081.88 23.9489 1082.89 23.9489C1083.5 23.9489 1084.1 24.0507 1084.68 24.2543C1085.26 24.4579 1085.77 24.7775 1086.23 25.2131C1086.69 25.6487 1087.05 26.2145 1087.32 26.9105C1087.59 27.6018 1087.72 28.4422 1087.72 29.4318V30.1847H1079.05V28.5938H1085.64C1085.64 28.035 1085.52 27.5402 1085.3 27.1094C1085.07 26.6738 1084.75 26.3305 1084.34 26.0795C1083.93 25.8286 1083.45 25.7031 1082.9 25.7031C1082.31 25.7031 1081.79 25.8499 1081.34 26.1435C1080.9 26.4323 1080.56 26.8111 1080.32 27.2798C1080.08 27.7438 1079.96 28.2481 1079.96 28.7926V30.0355C1079.96 30.7647 1080.09 31.3849 1080.35 31.8963C1080.61 32.4077 1080.97 32.7983 1081.43 33.0682C1081.9 33.3333 1082.44 33.4659 1083.06 33.4659C1083.46 33.4659 1083.83 33.4091 1084.16 33.2955C1084.49 33.1771 1084.78 33.0019 1085.02 32.7699C1085.26 32.5379 1085.45 32.2514 1085.57 31.9105L1087.58 32.2727C1087.42 32.8646 1087.13 33.383 1086.72 33.8281C1086.3 34.2685 1085.79 34.6117 1085.16 34.858C1084.54 35.0994 1083.83 35.2202 1083.04 35.2202Z" fill="white"/>
<path d="M1106.63 34.9945H1108.48V33.6714C1109.37 33.5126 1110.13 33.1686 1110.76 32.6393C1111.4 32.1101 1111.71 31.325 1111.71 30.2842C1111.71 29.5432 1111.5 28.864 1111.08 28.2466C1110.65 27.6291 1109.81 27.091 1108.54 26.6324C1107.48 26.2795 1106.75 25.9708 1106.34 25.7062C1105.94 25.4415 1105.73 25.0799 1105.73 24.6212C1105.73 24.1625 1105.9 23.8009 1106.22 23.5362C1106.55 23.2716 1107.02 23.1393 1107.64 23.1393C1108.2 23.1393 1108.64 23.276 1108.96 23.5495C1109.28 23.8229 1109.51 24.1625 1109.65 24.5683L1111.34 23.8803C1111.15 23.2628 1110.79 22.7247 1110.27 22.266C1109.75 21.8074 1109.17 21.5516 1108.54 21.4986V20.1755H1106.69V21.4986C1105.8 21.6927 1105.12 22.0808 1104.62 22.663C1104.13 23.2452 1103.88 23.8979 1103.88 24.6212C1103.88 25.4504 1104.12 26.1207 1104.61 26.6324C1105.09 27.144 1105.86 27.585 1106.9 27.9555C1108.01 28.3612 1108.78 28.7229 1109.21 29.0404C1109.64 29.358 1109.86 29.7726 1109.86 30.2842C1109.86 30.8664 1109.65 31.2942 1109.24 31.5676C1108.82 31.8411 1108.33 31.9778 1107.74 31.9778C1107.16 31.9778 1106.65 31.7969 1106.2 31.4353C1105.75 31.0736 1105.42 30.5312 1105.2 29.8079L1103.46 30.4959C1103.7 31.3427 1104.09 32.0263 1104.61 32.5467C1105.13 33.0671 1105.8 33.4244 1106.63 33.6185V34.9945ZM1107.59 38.17C1106.12 38.17 1104.74 37.8921 1103.46 37.3364C1102.17 36.7807 1101.05 36.0265 1100.1 35.0739C1099.14 34.1212 1098.39 33.001 1097.83 31.7132C1097.28 30.4253 1097 29.0493 1097 27.585C1097 26.1207 1097.28 24.7447 1097.83 23.4569C1098.39 22.169 1099.14 21.0488 1100.1 20.0961C1101.05 19.1435 1102.17 18.3893 1103.46 17.8336C1104.74 17.2779 1106.12 17 1107.59 17C1109.05 17 1110.43 17.2779 1111.71 17.8336C1113 18.3893 1114.12 19.1435 1115.07 20.0961C1116.03 21.0488 1116.78 22.169 1117.34 23.4569C1117.89 24.7447 1118.17 26.1207 1118.17 27.585C1118.17 29.0493 1117.89 30.4253 1117.34 31.7132C1116.78 33.001 1116.03 34.1212 1115.07 35.0739C1114.12 36.0265 1113 36.7807 1111.71 37.3364C1110.43 37.8921 1109.05 38.17 1107.59 38.17Z" fill="white"/>
<path d="M1133.36 20.4545V35H1131.16V22.6562H1131.07L1127.59 24.929V22.8267L1131.22 20.4545H1133.36Z" fill="white"/>
</svg>
